<?xml version="1.0" encoding="UTF-8"?>
<!DOCTYPE svg PUBLIC "-//W3C//DTD SVG 1.1//EN" "http://www.w3.org/Graphics/SVG/1.1/DTD/svg11.dtd">
<!-- Creator: CorelDRAW X5 -->
<svg xmlns="http://www.w3.org/2000/svg" xml:space="preserve" width="32px" height="32px" style="shape-rendering:geometricPrecision; text-rendering:geometricPrecision; image-rendering:optimizeQuality; fill-rule:evenodd; clip-rule:evenodd"
viewBox="0 0 32 32"
 xmlns:xlink="http://www.w3.org/1999/xlink">
 <defs>
  <style type="text/css">
   <![CDATA[
    .str0 {stroke:#999999;stroke-width:0.666714}
    .fil6 {fill:none}
    .fil4 {fill:#071621}
    .fil2 {fill:#133F5C}
    .fil3 {fill:#216A9B}
    .fil5 {fill:#3299DE}
    .fil0 {fill:#333333}
    .fil7 {fill:url(#id8);fill-rule:nonzero}
    .fil8 {fill:url(#id9);fill-rule:nonzero}
    .fil9 {fill:url(#id10);fill-rule:nonzero}
    .fil1 {fill:url(#id11);fill-rule:nonzero}
   ]]>
  </style>
   <mask id="id0">
  <linearGradient id="id1" gradientUnits="userSpaceOnUse" x1="17.7197" y1="22.9325" x2="10.6693" y2="11.1826">
   <stop offset="0" style="stop-opacity:1; stop-color:white"/>
   <stop offset="1" style="stop-opacity:0; stop-color:white"/>
  </linearGradient>
    <rect style="fill:url(#id1)" x="1.11157" y="2.69709" width="26.1659" height="28.7209"/>
   </mask>
   <mask id="id2">
  <linearGradient id="id3" gradientUnits="userSpaceOnUse" x1="12.3229" y1="25.1435" x2="5.53025" y2="13.1442">
   <stop offset="0" style="stop-opacity:1; stop-color:white"/>
   <stop offset="1" style="stop-opacity:0; stop-color:white"/>
  </linearGradient>
    <rect style="fill:url(#id3)" x="1.12064" y="7.80554" width="15.6118" height="22.6766"/>
   </mask>
   <mask id="id4">
  <linearGradient id="id5" gradientUnits="userSpaceOnUse" x1="12.0594" y1="25.2482" x2="7.30929" y2="16.8568">
   <stop offset="0" style="stop-opacity:1; stop-color:white"/>
   <stop offset="1" style="stop-opacity:0; stop-color:white"/>
  </linearGradient>
    <rect style="fill:url(#id5)" x="5.39192" y="13.4084" width="8.58489" height="15.2883"/>
   </mask>
   <mask id="id6">
  <linearGradient id="id7" gradientUnits="userSpaceOnUse" x1="12.4204" y1="25.249" x2="9.99391" y2="20.9629">
   <stop offset="0" style="stop-opacity:1; stop-color:white"/>
   <stop offset="1" style="stop-opacity:0; stop-color:white"/>
  </linearGradient>
    <rect style="fill:url(#id7)" x="9.5105" y="19.1223" width="3.39329" height="7.96731"/>
   </mask>
  <linearGradient id="id8" gradientUnits="userSpaceOnUse" x1="8.29877" y1="8.24397" x2="9.72745" y2="31.8118">
   <stop offset="0" style="stop-color:#BF0000"/>
   <stop offset="1" style="stop-color:#822F2F"/>
  </linearGradient>
  <linearGradient id="id9" gradientUnits="userSpaceOnUse" xlink:href="#id8" x1="9.32266" y1="13.5542" x2="10.2426" y2="28.7352">
  </linearGradient>
  <linearGradient id="id10" gradientUnits="userSpaceOnUse" xlink:href="#id8" x1="10.6251" y1="18.6075" x2="11.1444" y2="27.1788">
  </linearGradient>
  <radialGradient id="id11" gradientUnits="userSpaceOnUse" cx="20.2573" cy="10.5843" r="8.74741" fx="20.2573" fy="10.5843">
   <stop offset="0" style="stop-color:gray"/>
   <stop offset="1" style="stop-color:#4D4D4D"/>
  </radialGradient>
 </defs>
 <g id="Layer_x0020_1">
  <metadata id="CorelCorpID_0Corel-Layer"/>
  <path class="fil0" style="mask:url(#id0)" d="M1.49066 23.0485l0.105072 0.316349 -0.246427 -0.0585831c-0.0752132,0.134552 -0.151182,0.267215 -0.228285,0.399877l0.334113 0.168568c0.992134,0.497768 0.772164,0.384381 0.692037,1.47667 -0.0714336,0.973236 -0.00188978,0.472445 -0.276664,0.859849 -0.0710557,0.100158 -0.112253,0.191246 -0.0317483,0.299719 0.0827723,0.111497 2.93898,0.103182 3.22736,0.0986464 1.63239,-0.0249451 1.279,-0.150048 1.94761,0.901424l0.168946 0.247561c0.190112,0.160631 0.405547,0.229797 0.606997,0.341294 0.667092,0.369641 1.27333,0.711691 1.99069,0.998181l2.23825 0.833014c0.364349,0.130773 0.672383,0.107339 1.14029,0.109229 0.855314,0.00415751 1.59951,-0.0453547 2.46427,0.131151 0.453547,0.0925992 0.500035,0.375688 0.785392,0.643281 0.435783,0.40857 2.42118,0.736636 2.96809,0.529516 0.184442,-0.0699218 0.297073,-0.113009 0.470177,-0.176505 0.628162,-0.230553 0.708667,-0.441452 1.14256,-0.919566 0.135686,-0.14967 0.202962,-0.213167 0.310302,-0.409704 0.051402,-0.0944889 0.0578272,-0.123592 0.12208,-0.25323 0.318239,-0.640635 0.164033,-0.274774 0.126237,-0.762715 0.436917,-0.188222 1.39503,-1.51711 1.83875,-1.97255l0.796731 -0.73399c0.199939,-0.176505 0.280065,-0.144001 0.391184,-0.377578 -0.150426,0.0408192 -0.0468665,0.0132285 -0.216947,0.0366617 -0.0215435,0.00264569 -0.0895755,0.0113387 -0.112253,0.0139844l-0.556729 0.0362838c-0.354522,0.0211655 -0.597926,0.0544256 -0.944889,0.0888196 -0.171214,0.017008 -0.289892,0.0219214 -0.445232,0.0404413l-0.381357 0.0476224c-0.311436,0.0325042 -0.724163,0.135308 -1.05601,0.0982685 -0.0566934,-0.210521 -0.178395,-0.546146 -0.106584,-0.755534 0.0328821,-0.0948669 0.399499,-0.553705 0.486807,-0.670871 0.519311,-0.695061 0.745329,-0.239624 1.56322,-0.479626 1.51031,-0.443342 2.99719,-0.914275 4.46328,-1.45664l0 -2.55725c-0.0317483,0.00453547 -0.0661423,0.00982685 -0.111497,0.0192757 -0.132285,0.0268349 -0.0529138,0.0219214 -0.210143,0.0506461 -0.296317,0.0544256 -0.639501,0.0117166 -0.933929,0.00491342 -0.624383,-0.0147403 -2.18723,-0.12019 -2.79309,0.0650084l-5.38889 1.71138c-0.468287,0.134174 -1.13991,0.233199 -1.54962,0.49928 -0.234333,0.151938 -0.408192,0.317483 -0.655375,0.423688 -0.0177639,-0.0143623 -0.0812605,-0.0566934 -0.124725,-0.0933551l-0.973236 -0.913519c-0.00869298,-0.00831503 -0.0226773,-0.0222994 -0.0317483,-0.0302365 -0.122458,-0.110363 0.0476224,-0.0929771 -0.320884,-0.213923l-0.198427 0.313703 -3.81697 -3.23303c0.148915,-0.546146 0.0476224,-0.958874 0.00491342,-1.54093 -0.0408192,-0.551437 -0.06841,-1.07755 -0.125859,-1.62861 -0.0294805,-0.278553 -0.0411972,-0.465264 -0.101292,-0.758179 -0.362082,-1.76845 -0.647438,-3.51121 -0.895755,-5.29856 -0.157608,-1.13311 -0.551059,-2.48468 -0.943378,-3.55127 -0.183686,-0.498902 0.0419531,-0.64706 -0.394208,-1.05298l-1.83233 -1.57154c-0.199939,-0.166301 0.0990244,0.0982685 -0.108473,-0.100158l-0.654997 -0.575627c0.162521,1.3973 0.248695,2.83127 0.248695,4.2932 0,6.03331 -1.44115,11.5945 -3.86611,16.0488z"/>
  <path class="fil1 str0" d="M11.5103 13.6623l8.74703 0 0 3.07732 8.74741 -6.15539 -8.74741 -6.15539 0 3.07732 -8.74703 0 0 6.15614zm4.37333 0m4.3737 1.53828m4.3737 -1.53866m0 -6.15577m-4.3737 -1.53866m-4.3737 1.53866m-4.37333 3.07807"/>
  <path class="fil2" d="M-0 7.31609c0.0891976,0.093733 0.184064,0.201072 0.303876,0.331089 1.42376,1.54282 1.43245,1.50162 2.16644,2.9953l0.329577 0.676919c1.52241,3.26629 1.34023,5.1315 2.12827,7.11313l1.21551 3.15064c0.00415751,0.0117166 0.00982685,0.0309924 0.0136064,0.042331l0.170458 0.513264 -0.823188 -0.195781c-0.418397,-0.150426 -0.985709,-0.252096 -1.37576,-0.422932 0.0234333,0.30312 0.0476224,0.230931 0.314081,0.375688 0.196159,0.106584 0.37531,0.198427 0.566934,0.260789 0.302365,0.0986464 0.37153,0.0907094 0.63043,0.217703 0.159119,0.0782368 0.34394,0.172726 0.546902,0.274396 0.992134,0.497768 0.772164,0.384381 0.692037,1.47667 -0.0714336,0.973236 -0.00188978,0.472445 -0.276664,0.859849 -0.0710557,0.100158 -0.112253,0.191246 -0.0317483,0.299719 0.0827723,0.111497 2.93898,0.103182 3.22736,0.0986464 1.63239,-0.0249451 1.279,-0.150048 1.94761,0.901424l0.168946 0.247561c0.190112,0.160631 0.405547,0.229797 0.606997,0.341294 0.667092,0.369641 1.27333,0.711691 1.99069,0.998181l2.23825 0.833014c0.364349,0.130773 0.672383,0.107339 1.14029,0.109229 0.855314,0.00415751 1.59951,-0.0453547 2.46427,0.131151 0.453547,0.0925992 0.500035,0.375688 0.785392,0.643281 0.435783,0.40857 2.42118,0.736636 2.96809,0.529516 0.184442,-0.0699218 0.297073,-0.113009 0.470177,-0.176505 0.628162,-0.230553 0.708667,-0.441452 1.14256,-0.919566 0.135686,-0.14967 0.202962,-0.213167 0.310302,-0.409704 0.051402,-0.0944889 0.0578272,-0.123592 0.12208,-0.25323 0.318239,-0.640635 0.164033,-0.274774 0.126237,-0.762715 0.436917,-0.188222 1.39503,-1.51711 1.83875,-1.97255l0.796731 -0.73399c0.199939,-0.176505 0.280065,-0.144001 0.391184,-0.377578 -0.150426,0.0408192 -0.0468665,0.0132285 -0.216947,0.0366617 -0.0215435,0.00264569 -0.0895755,0.0113387 -0.112253,0.0139844l-0.556729 0.0362838c-0.354522,0.0211655 -0.597926,0.0544256 -0.944889,0.0888196 -0.171214,0.017008 -0.289892,0.0219214 -0.445232,0.0404413l-0.381357 0.0476224c-0.311436,0.0325042 -0.724163,0.135308 -1.05601,0.0982685 -0.0566934,-0.210521 -0.178395,-0.546146 -0.106584,-0.755534 0.0328821,-0.0948669 0.399499,-0.553705 0.486807,-0.670871 0.519311,-0.695061 0.745329,-0.239624 1.56322,-0.479626 1.51031,-0.443342 2.99719,-0.914275 4.46328,-1.45664l0 -2.55725c-0.0317483,0.00453547 -0.0661423,0.00982685 -0.111497,0.0192757 -0.132285,0.0268349 -0.0529138,0.0219214 -0.210143,0.0506461 -0.296317,0.0544256 -0.639501,0.0117166 -0.933929,0.00491342 -0.624383,-0.0147403 -2.18723,-0.12019 -2.79309,0.0650084l-5.38889 1.71138c-0.468287,0.134174 -1.13991,0.233199 -1.54962,0.49928 -0.234333,0.151938 -0.408192,0.317483 -0.655375,0.423688 -0.0177639,-0.0143623 -0.0812605,-0.0566934 -0.124725,-0.0933551l-0.973236 -0.913519c-0.00869298,-0.00831503 -0.0226773,-0.0222994 -0.0317483,-0.0302365 -0.122458,-0.110363 0.0476224,-0.0929771 -0.320884,-0.213923l-0.198427 0.313703 -3.81697 -3.23303c0.148915,-0.546146 0.0476224,-0.958874 0.00491342,-1.54093 -0.0408192,-0.551437 -0.06841,-1.07755 -0.125859,-1.62861 -0.0294805,-0.278553 -0.0411972,-0.465264 -0.101292,-0.758179 -0.362082,-1.76845 -0.647438,-3.51121 -0.895755,-5.29856 -0.157608,-1.13311 -0.551059,-2.48468 -0.943378,-3.55127 -0.183686,-0.498902 0.0419531,-0.64706 -0.394208,-1.05298l-1.83233 -1.57154c-0.199939,-0.166301 0.0990244,0.0982685 -0.108473,-0.100158l-1.5413 -1.35459c-0.264947,-0.232443 -0.528004,-0.467153 -0.791439,-0.701486l-8.16233 0 0 7.31609z"/>
  <g id="_256540712">
   <path id="_263270384" class="fil2" d="M-0 4.98108c1.77148,0.0419531 4.85635,-0.0336381 5.62625,-0.0362838 0.994024,-0.00302365 5.45504,-0.0472445 6.63048,-0.197293 0.21997,0.345074 0.297451,1.0133 0.305388,1.52127 -0.253608,-0.0249451 -0.424822,0.0291026 -0.654997,0.0336381 -0.558619,0.0113387 -0.181419,0.0729455 -0.682588,0.0272128l-0.388916 0.0113387c-0.311058,0.0404413 -0.445232,-0.000377956 -0.720762,0.0646304l-0.100536 0.0298585c-0.0147403,0.00415751 -0.0332601,0.0128505 -0.0472445,0.0166301 -0.456948,0.124347 -0.126615,-0.115276 -0.633454,0.100158 -0.363593,0.154584 -0.250585,0.0438429 -0.582052,0.114143 -0.623627,0.132662 -0.42898,-0.0532918 -0.782746,0.0793707l-0.119434 0.0555595c-0.20523,0.0619847 -0.376822,0.0264569 -0.572603,-0.00264569 -0.168946,-0.0249451 -0.457326,0.00113387 -0.706777,0.0491342 -0.167056,0.0321262 0.017008,0.00529138 -0.139088,0.0355278l-1.14823 0.144757 -1.00234 0.361704c-0.0710557,-0.259656 0.0653863,-0.269482 0.136064,-0.385137 -0.2589,0.0275908 -0.125859,0.0260789 -0.288758,0.147781 -0.195403,0.147025 -0.0419531,0.0668982 -0.305766,0.158741 0.0434649,0.137198 0.0366617,-0.0275908 0.0396854,0.194269 0.00415751,0.346585 0.00642525,0.00907094 -0.0457326,0.200317l-0.0347719 0.860605c0.0222994,0.192002 0.0461106,0.323152 0.0453547,0.505705 -0.00226773,0.483783 -0.0321262,0.136064 0.0823943,0.473201 0.0827723,0.245293 0.0313703,0.293672 0.0487563,0.426334 0.025701,0.192379 0.0102048,-0.042709 0.0355278,0.13682 0.0695439,0.485295 -0.0162521,-0.198049 0.166678,0.280443 -0.332601,0.0657643 0.0102048,-0.125103 -0.332601,0.111497 -0.216191,0.149293 -0.687501,0.365105 -0.816006,0.541989 -0.0491342,0.0672761 -0.0139844,0.0476224 -0.0721895,0.126615 -0.106206,0.145135 0.00453547,0.0631186 -0.106961,0.0634966 0.0740793,0.13493 0.135686,0.233955 0.182175,0.350365 0.0778589,0.194269 0.076725,0.281199 -0.00151182,0.401011 0.596792,0.518555 1.35535,5.12243 1.84858,6.36855l0.441452 1.16902c0.112631,0.192002 -0.0396854,0.108095 0.202206,0.186332 -0.168568,0.234333 -0.127371,0.112253 0.0449767,0.133796 -0.167812,0.252474 -0.135686,0.131529 0.0461106,0.129639 -0.114143,0.15156 -0.150048,0.112253 0.0279687,0.145135l-0.0279687 -0.145135 -0.0461106 -0.129639 -0.0449767 -0.133796 -0.0782368 -0.322396c0.196915,-0.0733234 0.13304,-0.0128505 0.329955,-0.125103l0.732478 -0.487563c0.328444,-0.242648 0.246427,-0.144001 0.500413,-0.303498l1.04996 -0.53254c0.223372,-0.0638745 0.634588,-0.0234333 0.903692,0.102804 0.411594,0.193513 -0.109985,-0.00377956 0.340538,0.164411 0.30312,0.113387 -0.0884416,0.126615 0.618714,0.214679 0.279687,0.034394 0.340916,0.154962 0.565422,0.34205 0.0117166,0.00982685 0.0275908,0.0230553 0.0393074,0.0325042 0.0117166,0.00944889 0.0287246,0.0219214 0.0404413,0.0309924l0.16819 0.127371c0.00302365,0.00264569 0.0907094,0.198427 0.973236,0.147025 0.0102048,-0.000377956 0.0298585,-0.0034016 0.0393074,-0.00415751l0.115276 -0.0166301c0.270238,-0.00188978 0.616068,0.336381 0.803534,0.487563 0.111497,0.0899535 0.244537,0.173482 0.341294,0.239624 0.2589,0.176505 0.394964,0.314837 0.667092,0.487941 0.211655,0.134174 0.413106,0.30879 0.672005,0.429736 0.142489,0.0668982 0.33827,0.132662 0.437673,0.174994 0.280821,0.119056 0.213923,0.130395 0.385515,0.203718 0.241136,0.103182 0.6841,0.17386 0.922968,0.261545 0.457704,0.16819 0.470933,0.306522 0.769896,0.426712 -0.0404413,-0.487941 -1.3236,-2.01904 -1.58363,-2.18647 0.0627407,-0.123214 0.0714336,-0.0888196 -0.0676541,-0.0718116 0.0646304,-0.125859 0.0752132,-0.0929771 -0.0657643,-0.0729455l-0.286868 -0.454303c-0.130395,-0.156096 -0.206742,-0.279309 -0.392318,-0.380223 0.0646304,-0.125481 0.0729455,-0.0903314 -0.06841,-0.0725675 0.0650084,-0.125481 0.0839062,-0.0990244 -0.0559374,-0.0793707 0.291782,-0.939598 0.854936,-0.286868 1.26615,0.0729455 0.907472,0.792951 1.98767,1.71516 2.9129,2.44122 0.247183,0.193891 0.162521,-0.172348 0.316349,-0.485673l0.280821 -0.00151182 -0.000755911 0.0162521 0.000755911 -0.0162521c-0.336003,-0.176505 -0.182553,-0.0653863 -0.280821,0.00151182 -0.0578272,0.0404413 -0.0328821,-0.155718 -0.113765,0.22186l-0.0687879 0.128883 -3.37892 -2.7742c-0.839818,-0.70073 -1.58477,0.0642525 -0.933929,0.394964l0.0559374 0.0793707c-0.0691659,0.130773 -0.0782368,0.0960008 0.06841,0.0725675l0.0385515 0.0914653c0.0359058,0.0589611 0.0109607,0.0359058 0.0823943,0.121324l0.558241 0.621737 0.0657643 0.0729455c0.0132285,0.125481 -0.0272128,0.132662 0.0676541,0.0718116l0.63232 0.978149c-0.532162,-0.654997 -0.579028,-0.373042 -1.25292,-0.686746 -0.405547,-0.188978 -0.314837,-0.454681 -1.2979,-1.05185 -0.247183,-0.150048 -0.664068,-0.486429 -0.706399,-0.741549 -0.113765,-0.686368 -0.0105828,-0.0400633 -0.710935,-1.15012 0.502681,-0.195403 0.843975,0.139466 1.25406,0.0313703 0.478114,-0.127749 0.510996,-1.10287 0.572603,-1.53034 0.271372,-1.88033 -0.0313703,-4.51808 -0.291782,-6.38329 -0.0725675,-0.521201 -0.0948669,-1.01972 -0.211277,-1.51031 -0.21808,-0.919566 -0.441452,-1.94231 -0.625139,-2.877 -0.58243,-0.124725 -0.49172,-0.210143 -0.708667,-0.266081l-0.218836 -0.0188978c-0.731344,-0.0393074 -0.718494,-0.105072 -1.27636,-0.387027l-0.960386 -0.462618c-0.432003,-0.199939 -1.17998,-0.397609 -1.78395,-0.733612 -0.229041,-0.127371 -0.348097,-0.308412 -0.57865,-0.429358 -0.248695,-0.131151 -0.232443,0.00718116 -0.671627,-0.0619847 -0.90218,-0.142111 -1.47743,-0.366239 -2.14074,-0.452791 -0.607753,-0.0789927 -1.34666,-0.442586 -1.98276,-0.385137 -1.20454,0.108095 -1.0715,-0.320129 -1.1127,-0.483783 -0.700352,0.0325042 -0.76725,-0.187088 -1.18791,-0.408948l0 4.38996z"/>
   <path id="_263269928" class="fil3" d="M21.8897 23.609c0.362082,0.226773 0.816006,0.760825 1.06584,0.899535 0.424444,0.235844 1.16524,0.0888196 1.65923,0.4955l-0.164789 0.596792c0.426712,0.0986464 0.274396,0.0922212 0.54539,0.280065 0.585075,0.405547 0.764604,-0.00453547 0.406302,0.908606 -0.204096,0.519689 -0.0914653,0.260789 -0.0336381,0.639123 -0.141355,0.123592 -0.486807,0.39572 -0.675029,0.448633 -0.737014,0.20712 -0.160253,-0.00831503 -0.778211,0.337892 -0.245671,0.137576 -0.679942,-0.00113387 -1.04807,-0.0710557 -0.52876,-0.100158 -0.509484,-0.24227 -0.865519,-0.46035 -0.277042,-0.169702 -0.622493,-0.220348 -0.76914,-0.458838l-0.370019 -0.799754c-0.283845,-0.676163 0.0396854,-1.1607 0.236978,-2.04928l0.8727 0.154962c-0.0642525,-0.636099 -0.309168,-0.624383 -0.0820164,-0.921834zm4.81402 -2.18269c-0.218458,-0.085418 -0.0812605,-0.0612288 -0.176505,0.0650084 0.300097,0.0222994 0.125859,0.025323 0.176505,-0.0650084 0.2366,0.0839062 0.0925992,0.0650084 0.182553,-0.0544256 -0.404413,-0.0672761 0.0370397,-0.0691659 0.161765,-0.0994024 0.164789,-0.0400633 0.299341,-0.076725 0.487941,-0.107339l-0.0831503 0.0495122c-0.00944889,0.00604729 -0.0661423,0.0468665 -0.0869298,0.0563154 -0.150804,-0.0891976 -0.110741,-0.120946 -0.141355,0.043087 0.168568,0.0381735 0.152316,0.093733 0.141355,-0.043087 0.221104,0.0222994 0.0774809,0.0321262 0.228663,-0.0139844 0.156096,-0.0476224 0.0272128,0.00793707 0.144001,-0.094111l-0.180285 -0.0306144c0.232821,-0.0230553 0.0899535,-0.0393074 0.263435,-0.0536697l0.209765 0.0419531c-0.154584,-0.0895755 -0.115654,-0.125859 -0.146269,0.0381735 0.170458,0.0385515 0.154584,0.0948669 0.146269,-0.0381735 0.246049,0.0839062 0.0933551,0.0529138 0.181419,-0.0551815l-0.148537 -0.0578272c0.425578,-0.0914653 0.841329,-0.177261 1.26729,-0.317861 0.865519,-0.285357 1.87239,-0.512886 2.66837,-0.711691l0 -1.01292 -0.419531 0.0359058c-0.329955,-0.102426 -0.160253,-0.0211655 -0.415373,-0.0317483 -0.145513,0.094111 -0.181797,0.105072 -0.433515,0.111497 -0.768006,0.0204096 -0.277797,-0.017008 -1.06319,0.126993l-1.42111 0.252474c-0.25323,0.0812605 -0.397987,0.147025 -0.664068,0.232443l-3.15177 1.09607c-0.664068,0.3069 -3.17483,0.876857 -3.62346,1.09418l-0.241892 0.170458c-0.161765,-0.147025 -0.241892,-0.167056 -0.32164,-0.374176l-0.106961 -0.0453547c-0.179907,-0.0657643 -0.568445,-0.490964 -0.694683,-0.704509 -0.0359058,-0.113765 -0.216947,-0.274774 -0.344318,-0.414239l0.000755911 -0.0162521 -0.280821 0.00151182c-0.153828,0.313325 -0.0691659,0.679564 -0.316349,0.485673 -0.925236,-0.726053 -2.00543,-1.64826 -2.9129,-2.44122 -0.411216,-0.359814 -0.97437,-1.01254 -1.26615,-0.0729455 0.139844,-0.0196537 0.120946,-0.0461106 0.0559374,0.0793707 0.141355,-0.0177639 0.13304,-0.0529138 0.06841,0.0725675 0.185576,0.100914 0.261923,0.224128 0.392318,0.380223l0.286868 0.454303c0.140977,-0.0200317 0.130395,-0.0529138 0.0657643,0.0729455 0.139088,-0.017008 0.130395,-0.051402 0.0676541,0.0718116 0.260034,0.167434 1.54319,1.69853 1.58363,2.18647 -0.298963,-0.12019 -0.312191,-0.258522 -0.769896,-0.426712 -0.238868,-0.0876857 -0.681832,-0.158363 -0.922968,-0.261545 -0.171592,-0.0733234 -0.104694,-0.0846621 -0.385515,-0.203718 -0.0994024,-0.042331 -0.295183,-0.108095 -0.437673,-0.174994 -0.2589,-0.120946 -0.46035,-0.295561 -0.672005,-0.429736 -0.272128,-0.173104 -0.408192,-0.311436 -0.667092,-0.487941 -0.0967567,-0.0661423 -0.229797,-0.14967 -0.341294,-0.239624 -0.187466,-0.151182 -0.533296,-0.489453 -0.803534,-0.487563l-0.115276 0.0166301c-0.00944889,0.000755911 -0.0291026,0.00377956 -0.0393074,0.00415751 -0.882527,0.051402 -0.970212,-0.144379 -0.973236,-0.147025l-0.16819 -0.127371c-0.0117166,-0.00907094 -0.0287246,-0.0215435 -0.0404413,-0.0309924 -0.0117166,-0.00944889 -0.0275908,-0.0226773 -0.0393074,-0.0325042 -0.224506,-0.187088 -0.285735,-0.307656 -0.565422,-0.34205 -0.707155,-0.0880637 -0.315593,-0.101292 -0.618714,-0.214679 -0.450523,-0.16819 0.0710557,0.0291026 -0.340538,-0.164411 -0.269104,-0.126237 -0.68032,-0.166678 -0.903692,-0.102804l-1.04996 0.53254c-0.253986,0.159497 -0.17197,0.0608509 -0.500413,0.303498l-0.732478 0.487563c-0.196915,0.112253 -0.13304,0.0517799 -0.329955,0.125103l0.0782368 0.322396 0.0449767 0.133796 0.0461106 0.129639 0.0279687 0.145135c-0.0831503,0.249073 0.0506461,0.3772 0.18482,0.721517l0.232821 0.579028c0.00529138,0.0124725 0.0128505,0.0309924 0.0177639,0.0434649l0.20145 0.597548c-0.180663,-0.0336381 -0.429736,-0.0653863 -0.599816,-0.113009l-0.114143 -0.0381735c-0.516288,-0.177639 -1.01179,-0.260789 -1.48499,-0.467531 0.0132285,0.174616 -0.0291026,0.138332 0.123592,0.26986 0.202584,0.174238 0.806935,0.371153 1.06395,0.452035 0.41235,0.129261 1.00272,0.59906 1.38521,0.527248 0.599438,0.252474 1.67812,0.949803 2.41249,1.3527 0.418397,0.229797 0.774053,0.424066 1.20039,0.653485 0.775943,0.416885 0.687879,0.250207 1.14521,0.790305 0.178017,0.210521 -0.0385515,0.0725675 0.240758,0.141733 1.22836,0.305766 0.471311,-0.327688 1.66112,0.640635 0.14967,0.12208 0.329955,0.316349 0.509106,0.409704 0.803912,0.418019 1.11875,0.229419 1.38785,0.224506 0.213167,-0.00415751 0.00415751,0.0551815 0.254742,-0.00755911 0.488697,-0.122458 1.06054,-0.388538 1.62408,-0.396476 0.349609,-0.00491342 0.476224,-0.113009 0.722273,-0.0782368 0.293294,0.0411972 0.398743,0.204096 0.603973,0.30312l0.627029 0.326176c0.335247,0.0929771 0.244915,-0.137198 0.569957,0.218458l0.520823 0.665958c0.00793707,0.00944889 0.0211655,0.025323 0.0291026,0.0347719 0.469421,0.557107 0.289514,0.461862 0.774431,0.682966 0.796731,0.36246 2.27114,0.744573 3.03272,0.463752 0.456193,-0.16819 1.1641,-0.716226 1.50993,-1.05072 0.183686,-0.178017 0.241514,-0.315215 0.391184,-0.474712 -0.0222994,-0.165167 -0.0287246,-0.123592 -0.158741,-0.240758 0.0415751,-0.277797 0.14967,-0.757423 0.148537,-1.01746 -0.000755911,-0.176883 0.00415751,-0.000755911 -0.00491342,-0.119812 -0.0113387,-0.139844 0.0275908,0.0192757 -0.0272128,-0.179151l-0.167812 -0.000755911c-0.100536,0.0309924 -0.0623627,0.043087 -0.0948669,-0.0702998l-0.165545 -0.0034016c-0.0891976,-1.46722 -0.533673,-0.929393 -1.11384,-1.4676 0.153828,-0.326554 0.422932,-0.597926 0.51402,-0.955472 -0.448255,-0.501169 -0.222238,-0.211655 -0.480382,-0.44183 0.576382,-0.242648 0.6618,-0.0782368 1.47554,-0.516288 0.808447,-0.435405 0.713202,0.0634966 1.60518,-0.244537 0.963787,-0.332601 2.01753,-0.572981 3.01042,-0.868542l1.60782 -0.501169 0 -0.221482c-0.156852,0.0419531 -0.314081,0.0827723 -0.470933,0.12208l-2.82975 0.794841c-1.10476,0.362838 -1.33305,0.454303 -2.4004,0.535185 -0.266837,0.0200317 -0.256632,0.00113387 -0.522335,-0.0525358 0.0495122,-0.162143 -0.0105828,-0.0910873 0.178017,-0.254742l0.397609 -0.337514c0.0120946,-0.0294805 0.0302365,-0.0306144 0.0449767,-0.0464886 -0.710557,0.202206 -1.12933,1.30659 -1.59157,0.780101 0.989488,-0.398365 0.236222,-0.299341 0.908984,-0.566934 0.273262,-0.108851 0.812605,-0.385137 0.98911,-0.288002zm-8.03912 1.47932c-0.876857,-0.163655 -0.672005,-0.218836 -1.01406,-0.805424 -0.306144,-0.524981 -1.89998,-2.32518 -2.04663,-2.88683 0.549926,0.148537 1.60934,1.13689 2.09085,1.502 0.182931,0.139088 0.757801,0.646682 0.846999,0.834526 0.0752132,0.158363 0.156096,1.12744 0.122836,1.35573z"/>
   <path id="_263269808" class="fil4" d="M15.26 19.6031c-0.0948669,0.0608509 -0.0544256,0.0536697 -0.0676541,-0.0718116l-0.0657643 -0.0729455 -0.558241 -0.621737c-0.0714336,-0.085418 -0.0464886,-0.0623627 -0.0823943,-0.121324l-0.0385515 -0.0914653c-0.146647,0.0234333 -0.137576,0.0582052 -0.06841,-0.0725675l-0.0559374 -0.0793707c-0.65084,-0.330711 0.094111,-1.09569 0.933929,-0.394964l3.37892 2.7742 0.0687879 -0.128883c-0.274774,-0.122836 -2.56292,-2.03643 -3.07278,-2.43328 -0.0113387,-0.00869298 -0.0272128,-0.0215435 -0.0381735,-0.0302365l-0.283845 -0.253986c-0.731344,-0.651596 -0.329199,-0.435027 -0.397231,-1.1161 -0.136442,-1.37274 -0.116788,-2.36562 -0.393452,-3.75499 -0.329955,-1.65658 -0.56202,-3.07996 -0.797487,-4.77509 -0.150426,-1.0836 -0.527248,-2.32216 -0.853802,-3.3759 -0.0623627,-0.201828 -0.144757,-0.333357 -0.162521,-0.538587 -0.0260789,-0.295939 0.0551815,-0.394964 -0.167434,-0.592257l-0.0525358 -0.0755911 -0.0737014 -0.0608509c0.00604729,-0.111119 0.0291026,-0.0733234 -0.0907094,-0.0956228 -0.0211655,0.113387 -0.0381735,0.0718116 0.0907094,0.0956228l0.0737014 0.0608509 0.0525358 0.0755911c0.0219214,0.676919 -0.225262,0.654997 -0.660667,0.336003 -0.448633,-0.328444 -2.40304,-1.34968 -2.96846,-1.67359 -1.54773,-0.887818 -3.2508,-1.71705 -4.98826,-2.51416l-3.92053 0 0 0.591123c0.420665,0.22186 0.487563,0.441452 1.18791,0.408948 0.0411972,0.163655 -0.0918432,0.591879 1.1127,0.483783 0.636099,-0.0574493 1.375,0.306144 1.98276,0.385137 0.663312,0.0865519 1.23856,0.31068 2.14074,0.452791 0.439185,0.0691659 0.422932,-0.0691659 0.671627,0.0619847 0.230553,0.120946 0.349609,0.301987 0.57865,0.429358 0.603973,0.336003 1.35195,0.533673 1.78395,0.733612l0.960386 0.462618c0.557863,0.281955 0.545012,0.347719 1.27636,0.387027l0.218836 0.0188978c0.216947,0.0559374 0.126237,0.141355 0.708667,0.266081 0.183686,0.934685 0.407058,1.95743 0.625139,2.877 0.11641,0.490587 0.13871,0.98911 0.211277,1.51031 0.260411,1.86521 0.563154,4.50296 0.291782,6.38329 -0.0616068,0.427468 -0.0944889,1.40259 -0.572603,1.53034 -0.410082,0.108095 -0.751376,-0.226773 -1.25406,-0.0313703 0.700352,1.11006 0.59717,0.463752 0.710935,1.15012 0.042331,0.25512 0.459216,0.591501 0.706399,0.741549 0.983063,0.59717 0.892353,0.862873 1.2979,1.05185 0.673895,0.313703 0.720762,0.0317483 1.25292,0.686746l-0.63232 -0.978149zm-8.47641 -19.6031c0.749486,0.583186 1.90792,1.55529 2.47221,1.95894l1.78471 1.26048c0.35679,0.252852 0.503437,0.421421 0.614934,0.357168 -0.20145,-0.147403 -0.319751,-0.263057 -0.577516,-0.490964l-1.13462 -0.998937c-0.0109607,-0.00944889 -0.0264569,-0.0226773 -0.0377956,-0.0325042l-0.467531 -0.503059c-0.176127,-0.202206 -0.881393,-0.823188 -1.73104,-1.55113l-0.923346 0z"/>
   <path id="_263269328" class="fil4" d="M-0 7.2953c0.0616068,0.0740793 0.135308,0.161765 0.2366,0.271372 0.308412,0.333735 0.556351,0.604351 0.86703,0.941866 0.864763,0.939598 0.812227,1.11837 1.38181,2.21671l0.406302 0.869298c0.0192757,0.0483783 0.0287246,0.0616068 0.0563154,0.145513l0.0495122 0.178773c0.00453547,0.017008 0.0113387,0.043087 0.0151182,0.0650084 0.0782368,-0.119812 0.0793707,-0.206742 0.00151182,-0.401011 -0.0464886,-0.11641 -0.108095,-0.215435 -0.182175,-0.350365 0.111497,-0.000377956 0.000755911,0.0816384 0.106961,-0.0634966 0.0582052,-0.0789927 0.0230553,-0.059339 0.0721895,-0.126615 0.128505,-0.176883 0.599816,-0.392696 0.816006,-0.541989 0.342806,-0.2366 0,-0.0457326 0.332601,-0.111497 -0.182931,-0.478492 -0.0971346,0.204852 -0.166678,-0.280443 -0.025323,-0.179529 -0.00982685,0.0555595 -0.0355278,-0.13682 -0.017386,-0.132662 0.034016,-0.181041 -0.0487563,-0.426334 -0.114521,-0.337137 -0.0846621,0.0105828 -0.0823943,-0.473201 0.000755911,-0.182553 -0.0230553,-0.313703 -0.0453547,-0.505705l0.0347719 -0.860605c0.0521579,-0.191246 0.0498902,0.146269 0.0457326,-0.200317 -0.00302365,-0.22186 0.00377956,-0.0570713 -0.0396854,-0.194269 0.263813,-0.0918432 0.110363,-0.0117166 0.305766,-0.158741 0.162899,-0.121702 0.0298585,-0.12019 0.288758,-0.147781 -0.0706777,0.115654 -0.20712,0.125481 -0.136064,0.385137l1.00234 -0.361704 1.14823 -0.144757c0.156096,-0.0302365 -0.0279687,-0.0034016 0.139088,-0.0355278 0.249451,-0.0480004 0.537831,-0.0740793 0.706777,-0.0491342 0.195781,0.0291026 0.367373,0.0646304 0.572603,0.00264569l0.119434 -0.0555595c0.353767,-0.132662 0.159119,0.0532918 0.782746,-0.0793707 0.331467,-0.0702998 0.218458,0.0404413 0.582052,-0.114143 0.506839,-0.215435 0.176505,0.0241892 0.633454,-0.100158 0.0139844,-0.00377956 0.0325042,-0.0124725 0.0472445,-0.0166301l0.100536 -0.0298585c0.27553,-0.0650084 0.409704,-0.0241892 0.720762,-0.0646304l0.388916 -0.0113387c0.501169,0.0457326 0.123969,-0.0158741 0.682588,-0.0272128 0.230175,-0.00453547 0.401389,-0.0585831 0.654997,-0.0336381 -0.00793707,-0.507973 -0.085418,-1.1762 -0.305388,-1.52127 -1.17544,0.150048 -5.63645,0.194269 -6.63048,0.197293 -0.769896,0.00264569 -3.85477,0.0782368 -5.62625,0.0362838l0 2.31422z"/>
   <path id="_263268440" class="fil2" d="M3.92053 0c1.73746,0.797109 3.44053,1.62634 4.98826,2.51416 0.565422,0.323908 2.51983,1.34514 2.96846,1.67359 0.435405,0.318995 0.682588,0.340916 0.660667,-0.336003l-0.0525358 -0.0755911 -0.0737014 -0.0608509c-0.128883,-0.0238112 -0.111875,0.0177639 -0.0907094,-0.0956228l-1.43207 -1.23365c-0.0113387,-0.0102048 -0.025701,-0.0241892 -0.0366617,-0.034394l-0.150048 -0.134174c-0.0117166,-0.00944889 -0.0275908,-0.0215435 -0.0393074,-0.0309924l-0.435027 -0.357546c0.0891976,0.295561 -0.0366617,-0.00151182 0.0895755,0.167812l1.8928 1.66981c0.1406,0.141355 0.144001,0.127749 0.124725,0.375688 -0.433515,-0.0910873 -0.306144,-0.304254 -0.640635,-0.602461l-1.07453 -0.936196c-0.140977,-0.130017 -0.241892,-0.210899 -0.380979,-0.32731 -0.0521579,-0.0434649 -0.105828,-0.0869298 -0.156096,-0.128127 -0.279309,-0.230175 -0.341672,-0.317105 -0.644792,-0.497012l0.467531 0.503059c0.0113387,0.00982685 0.0268349,0.0230553 0.0377956,0.0325042l1.13462 0.998937c0.257766,0.227907 0.376066,0.343562 0.577516,0.490964 -0.111497,0.0642525 -0.258144,-0.104316 -0.614934,-0.357168l-1.78471 -1.26048c-0.564288,-0.403657 -1.72272,-1.37576 -2.47221,-1.95894l-2.86301 0z"/>
   <path id="_256546976" class="fil2" d="M6.63463 22.6883l0.245293 0.366995c0.0400633,0.129639 0.0351499,0.359058 0.0117166,0.520823 -0.068032,0.463374 -0.0226773,0.804668 -0.192757,1.19396 -0.0366617,0.0839062 -0.0884416,-0.0249451 -0.192379,0.184064 -0.1886,0.379468 0.218458,0.322774 0.776699,0.314837l2.98245 0.0366617c1.1951,0.0226773 0.823188,0.0748352 1.19358,0.47698l0.0929771 0.0960008 0.0476224 0.0888196 0.0495122 0.0820164 0.0529138 0.0808825 0.0555595 0.0782368 0.0589611 0.077103c0.470933,0.316727 1.4967,0.558619 2.06591,0.818652 0.896889,0.410082 2.39473,0.853802 3.4137,0.675029 0.355278,-0.0623627 0.625517,-0.139088 0.983819,-0.205608 0.642903,-0.119056 0.559752,0.233199 1.04127,0.231687 0.932039,-0.00264569 0.457704,0.042331 1.32662,0.931661 0.0948669,0.0971346 0.0869298,0.0907094 0.201828,0.156474 0.22375,0.127371 0.855314,0.297451 1.11573,0.369641 0.936952,0.259656 1.72083,0.388916 2.37583,0.0933551 0.587343,-0.265325 0.977016,-0.651218 1.42716,-1.29714 0.393452,-0.564288 0.108851,-0.352633 0.0895755,-0.841329 -0.00831503,-0.20334 0.0608509,-0.444476 0.0907094,-0.659911 0.000755911,-0.00566934 0.0185198,-0.288758 0.0181419,-0.291026 -0.0449767,-0.205608 0.0532918,-0.107339 -0.157608,-0.235466 0.0548036,0.198427 0.0158741,0.0393074 0.0272128,0.179151 0.00907094,0.119056 0.00415751,-0.0570713 0.00491342,0.119812 0.00113387,0.260034 -0.106961,0.739659 -0.148537,1.01746 0.130017,0.117166 0.136442,0.0755911 0.158741,0.240758 -0.14967,0.159497 -0.207498,0.296695 -0.391184,0.474712 -0.345829,0.334491 -1.05374,0.882527 -1.50993,1.05072 -0.761581,0.280821 -2.23599,-0.101292 -3.03272,-0.463752 -0.484917,-0.221104 -0.30501,-0.125859 -0.774431,-0.682966 -0.00793707,-0.00944889 -0.0211655,-0.025323 -0.0291026,-0.0347719l-0.520823 -0.665958c-0.325042,-0.355656 -0.234711,-0.125481 -0.569957,-0.218458l-0.627029 -0.326176c-0.20523,-0.0990244 -0.31068,-0.261923 -0.603973,-0.30312 -0.246049,-0.0347719 -0.372664,0.0733234 -0.722273,0.0782368 -0.563532,0.00793707 -1.13538,0.274018 -1.62408,0.396476 -0.250585,0.0627407 -0.0415751,0.0034016 -0.254742,0.00755911 -0.269104,0.00491342 -0.583942,0.193513 -1.38785,-0.224506 -0.179151,-0.0933551 -0.359436,-0.287624 -0.509106,-0.409704 -1.1898,-0.968323 -0.432759,-0.334869 -1.66112,-0.640635 -0.279309,-0.0691659 -0.0627407,0.0687879 -0.240758,-0.141733 -0.457326,-0.540099 -0.369263,-0.37342 -1.14521,-0.790305 -0.426334,-0.229419 -0.78199,-0.423688 -1.20039,-0.653485 -0.734368,-0.402901 -1.81305,-1.10023 -2.41249,-1.3527z"/>
   <path id="_263267576" class="fil5" d="M22.9555 24.5085c-0.249829,-0.13871 -0.703754,-0.672761 -1.06584,-0.899535 -0.227151,0.297451 0.0177639,0.285735 0.0820164,0.921834l-0.8727 -0.154962c-0.197293,0.888574 -0.520823,1.37311 -0.236978,2.04928l0.370019 0.799754c0.146647,0.23849 0.492098,0.289136 0.76914,0.458838 0.356034,0.21808 0.336759,0.360192 0.865519,0.46035 0.368129,0.0699218 0.8024,0.208632 1.04807,0.0710557 0.617958,-0.346207 0.0411972,-0.130773 0.778211,-0.337892 0.188222,-0.0529138 0.533673,-0.325042 0.675029,-0.448633 -0.0578272,-0.378334 -0.170458,-0.119434 0.0336381,-0.639123 0.358302,-0.913141 0.178773,-0.503059 -0.406302,-0.908606 -0.270994,-0.187844 -0.118678,-0.181419 -0.54539,-0.280065l0.164789 -0.596792c-0.493988,-0.40668 -1.23478,-0.259656 -1.65923,-0.4955z"/>
   <path id="_263272184" class="fil4" d="M28.8664 24.555l0.111875 0.00529138c-0.583564,0.154206 -1.69891,0.840196 -2.35277,0.760825 -0.461484,-0.0559374 -0.620981,-0.042709 -1.02577,-0.0476224l-0.0529138 0.687124c0.13304,-0.00982685 0.116788,-0.0480004 0.0948669,0.0702998l0.167812 0.000755911c0.210899,0.128127 0.112631,0.0298585 0.157608,0.235466 0.000377956,0.00226773 -0.017386,0.285357 -0.0181419,0.291026 -0.0298585,0.215435 -0.0990244,0.456571 -0.0907094,0.659911 0.0192757,0.488697 0.303876,0.277042 -0.0895755,0.841329 -0.450145,0.645926 -0.839818,1.03182 -1.42716,1.29714 -0.654997,0.295561 -1.43888,0.166301 -2.37583,-0.0933551 -0.260411,-0.0721895 -0.891976,-0.24227 -1.11573,-0.369641 -0.114899,-0.0657643 -0.106961,-0.059339 -0.201828,-0.156474 -0.86892,-0.88933 -0.394586,-0.934307 -1.32662,-0.931661 -0.481516,0.00151182 -0.398365,-0.350743 -1.04127,-0.231687 -0.358302,0.0665202 -0.62854,0.143245 -0.983819,0.205608 -1.01897,0.178773 -2.51681,-0.264947 -3.4137,-0.675029 -0.569201,-0.260034 -1.59497,-0.501925 -2.06591,-0.818652l-0.0589611 -0.077103 -0.0555595 -0.0782368 -0.0529138 -0.0808825 -0.0495122 -0.0820164 -0.0476224 -0.0888196 -0.0929771 -0.0960008c-0.0279687,0.149293 -0.0578272,0.11641 0.0929771,0.0960008 -0.0763471,0.124725 -0.0975126,0.0982685 0.0476224,0.0888196 -0.068032,0.116032 -0.08504,0.0891976 0.0495122,0.0820164 -0.0608509,0.114899 -0.077103,0.0873078 0.0529138,0.0808825 -0.0582052,0.115276 -0.0740793,0.0873078 0.0555595,0.0782368 -0.059339,0.119434 -0.0740793,0.0903314 0.0589611,0.077103 -0.0907094,0.231687 0.191246,0.257766 0.733612,0.559752 0.32731,0.182175 0.611154,0.311436 0.925992,0.487563 0.691659,0.386649 2.11655,0.88744 2.98056,1.20643 1.08738,0.401011 1.92757,0.0498902 3.28255,0.227907 1.66376,0.218458 0.779723,0.73399 1.7832,0.964165 2.13961,0.491342 1.71743,0.585831 3.17785,0.059717 0.278931,-0.100536 0.180663,-0.0151182 0.388916,-0.20901 0.434271,-0.403657 0.894999,-1.00272 1.13047,-1.55189 0.173104,-0.404035 0.0207876,-0.154584 -0.0068032,-0.514776 0.516288,-0.222238 1.29261,-1.52052 2.22011,-2.36411 0.270616,-0.246427 0.701108,-0.498902 0.806558,-0.720006 -0.19049,0.051402 -0.188222,-0.0188978 -0.37342,0.123592z"/>
   <path id="_361463936" class="fil2" d="M32 19.978c-0.795975,0.198805 -1.80285,0.426334 -2.66837,0.711691 -0.425956,0.1406 -0.841707,0.226395 -1.26729,0.317861l0.148537 0.0578272 3.20582 -0.699218 0.581296 -0.109229 0 -0.278931zm-4.26145 1.18489l0.146647 -0.00415751c0.0306144,-0.164033 -0.00831503,-0.127749 0.146269,-0.0381735l-0.209765 -0.0419531c-0.173482,0.0143623 -0.0306144,0.0306144 -0.263435,0.0536697l0.180285 0.0306144zm-0.85229 0.20901l0.33827 -0.0578272c0.0306144,-0.164033 -0.00944889,-0.132285 0.141355,-0.043087 0.0207876,-0.00944889 0.0774809,-0.0502681 0.0869298,-0.0563154l0.0831503 -0.0495122c-0.1886,0.0306144 -0.323152,0.0672761 -0.487941,0.107339 -0.124725,0.0302365 -0.566178,0.0321262 -0.161765,0.0994024zm-0.489075 0.129261l0.130017 -0.00982685c0.0952448,-0.126237 -0.0419531,-0.150426 0.176505,-0.0650084 -0.176505,-0.0971346 -0.715848,0.179151 -0.98911,0.288002 -0.672761,0.267593 0.0805046,0.168568 -0.908984,0.566934 0.46224,0.526492 0.881015,-0.577894 1.59157,-0.780101z"/>
   <path id="_361463792" class="fil3" d="M7.7069 0c0.849644,0.727943 1.55491,1.34892 1.73104,1.55113 0.30312,0.179907 0.365483,0.266837 0.644792,0.497012 0.0502681,0.0411972 0.103938,0.0846621 0.156096,0.128127 0.139088,0.11641 0.240002,0.197293 0.380979,0.32731l1.07453 0.936196c0.334491,0.298207 0.20712,0.511374 0.640635,0.602461 0.0192757,-0.247939 0.0158741,-0.234333 -0.124725,-0.375688l-1.8928 -1.66981c-0.126237,-0.169324 -0.000377956,0.127749 -0.0895755,-0.167812 -0.0483783,-0.094111 -1.24763,-1.14407 -2.04285,-1.82893l-0.478114 0z"/>
   <path id="_361463648" class="fil4" d="M32 18.8581c-0.0476224,0.00604729 -0.0914653,0.0120946 -0.126993,0.0192757 -0.179529,0.0366617 -0.184442,0.0393074 -0.292538,0.123592l0.419531 -0.0359058 0 -0.106961zm0 2.26244c-0.901046,0.358302 -4.63223,1.61954 -5.04722,1.59535 -0.459216,-0.0264569 -0.513642,-0.230175 -0.880637,0.0325042l-1.17204 0.806935c0.153828,0.290648 0.296695,0.339782 0.382113,0.674651 -0.042331,0.372664 -0.319373,0.243026 -0.231309,0.522713 0.0574493,0.182931 0.0997803,0.161009 0.28649,0.170458 0.157608,0.00755911 0.316349,-0.0808825 0.353767,-0.0990244 -0.297073,-0.125859 -0.141733,-0.0381735 -0.217325,-0.29027 -0.0230553,-0.077103 -0.0151182,-0.10167 -0.0411972,-0.150426 -0.113387,-0.210143 0.0744573,-0.0234333 -0.150426,-0.15345 0.226773,-0.363593 0.39383,-0.555217 0.624005,-0.863251 0.27364,-0.365861 0.334113,-0.438807 0.865141,-0.376444 0.560886,0.0657643 1.44115,-0.351121 1.96386,-0.49928 0.684856,-0.194269 1.22949,-0.388161 1.90792,-0.580162 0.498146,-0.141355 0.914275,-0.322018 1.35686,-0.501547l0 -0.288758z"/>
   <path id="_361463504" class="fil5" d="M28.2129 21.0654c-0.0880637,0.108095 0.0646304,0.139088 -0.181419,0.0551815 0.00831503,0.13304 0.0241892,0.076725 -0.146269,0.0381735l-0.146647 0.00415751c-0.116788,0.102048 0.0120946,0.0464886 -0.144001,0.094111 -0.151182,0.0461106 -0.00755911,0.0362838 -0.228663,0.0139844 0.0109607,0.13682 0.0272128,0.0812605 -0.141355,0.043087l-0.33827 0.0578272c-0.0899535,0.119434 0.0540477,0.138332 -0.182553,0.0544256 -0.0506461,0.0903314 0.123592,0.0873078 -0.176505,0.0650084l-0.130017 0.00982685c-0.0147403,0.0158741 -0.0328821,0.017008 -0.0449767,0.0464886l-0.397609 0.337514c-0.1886,0.163655 -0.128505,0.0925992 -0.178017,0.254742 0.265703,0.0536697 0.255498,0.0725675 0.522335,0.0525358 1.06735,-0.0808825 1.29563,-0.172348 2.4004,-0.535185l2.82975 -0.794841c0.156852,-0.0393074 0.314081,-0.0801266 0.470933,-0.12208l0 -0.483405 -0.581296 0.109229 -3.20582 0.699218z"/>
   <path id="_361463360" class="fil2" d="M25.862 24.9961c0.28838,-0.158363 1.4967,-0.28649 1.95592,-0.240002 -0.215813,0.0884416 -0.607753,0.281955 -0.826967,0.350743 -0.177261,0.0555595 -1.00272,-0.017008 -1.12895,-0.110741zm-0.315215 0.964543c0.0325042,0.113387 -0.00566934,0.101292 0.0948669,0.0702998 0.0219214,-0.1183 0.0381735,-0.0801266 -0.0948669,-0.0702998l0.0529138 -0.687124c0.404791,0.00491342 0.564288,-0.00831503 1.02577,0.0476224 0.653863,0.0793707 1.76921,-0.606619 2.35277,-0.760825l-0.111875 -0.00529138c-0.282333,-0.123592 -1.66905,0.068032 -2.174,0.128127l-0.221104 0.0226773c-0.212033,0.0196537 -0.585075,0.0396854 -0.780101,0.1183 -0.0374176,0.0181419 -0.196159,0.106584 -0.353767,0.0990244 -0.18671,-0.00944889 -0.229041,0.0124725 -0.28649,-0.170458 -0.0880637,-0.279687 0.188978,-0.150048 0.231309,-0.522713 -0.085418,-0.334869 -0.228285,-0.384003 -0.382113,-0.674651l1.17204 -0.806935c0.366995,-0.262679 0.421421,-0.0589611 0.880637,-0.0325042 0.414995,0.0241892 4.14617,-1.23705 5.04722,-1.59535l0 -0.158741 -1.60782 0.501169c-0.99289,0.295561 -2.04663,0.535941 -3.01042,0.868542 -0.891976,0.308034 -0.796731,-0.190868 -1.60518,0.244537 -0.813739,0.438051 -0.899157,0.27364 -1.47554,0.516288 0.258144,0.230175 0.0321262,-0.059339 0.480382,0.44183 -0.0910873,0.357546 -0.360192,0.628918 -0.51402,0.955472 0.580162,0.538209 1.02464,0.000377956 1.11384,1.4676l0.165545 0.0034016z"/>
   <path id="_263279768" class="fil2" d="M28.8497 18.9598c-0.464508,0.180285 -0.275908,-0.140977 -1.16675,0.274018 -0.316727,0.147781 -0.754778,0.189356 -1.07566,0.327688 -0.311813,0.134174 -0.675029,0.340916 -0.992512,0.43994 -0.371153,0.115276 -0.71547,0.197671 -1.05941,0.362838 -1.18678,0.569579 -3.23492,0.801644 -3.80904,1.17204 -0.179529,0.115654 -0.229419,0.24038 -0.501925,0.142867l-0.106961 -0.0453547 0.0068032 -0.0835282c-0.0797487,-0.0468665 -0.0672761,-0.0419531 -0.142111,-0.114899l-0.504571 -0.464508c-0.0143623,-0.0113387 -0.0362838,-0.0279687 -0.0548036,-0.0415751 0.126237,0.213545 0.514776,0.638745 0.694683,0.704509l0.106961 0.0453547c0.0797487,0.20712 0.159875,0.227151 0.32164,0.374176l0.241892 -0.170458c0.448633,-0.217325 2.95939,-0.787282 3.62346,-1.09418l3.15177 -1.09607c0.266081,-0.085418 0.410838,-0.151182 0.664068,-0.232443l1.42111 -0.252474c0.785392,-0.144001 0.295183,-0.106584 1.06319,-0.126993 0.251719,-0.00642525 0.288002,-0.017386 0.433515,-0.111497 -0.294428,-0.0370397 -2.1328,-0.0563154 -2.31536,-0.00944889z"/>
   <path id="_263282408" class="fil5" d="M18.6646 22.9056c0.0332601,-0.228285 -0.0476224,-1.19736 -0.122836,-1.35573 -0.0891976,-0.187844 -0.664068,-0.695439 -0.846999,-0.834526 -0.481516,-0.365105 -1.54093,-1.35346 -2.09085,-1.502 0.146647,0.561642 1.74049,2.36185 2.04663,2.88683 0.34205,0.586587 0.137198,0.641769 1.01406,0.805424z"/>
   <path id="_236041712" class="fil4" d="M20.1443 21.5503l-0.0068032 0.0835282 0.106961 0.0453547c0.272506,0.0975126 0.322396,-0.0272128 0.501925,-0.142867 0.574115,-0.370397 2.62226,-0.602461 3.80904,-1.17204 0.34394,-0.165167 0.688257,-0.247561 1.05941,-0.362838 0.317483,-0.0990244 0.680698,-0.305766 0.992512,-0.43994 0.320884,-0.138332 0.758935,-0.179907 1.07566,-0.327688 0.890842,-0.414995 0.702242,-0.093733 1.16675,-0.274018 -0.46224,-0.085796 -0.757045,0.00642525 -1.16221,0.111875 -1.6853,0.438429 -2.21973,0.690147 -3.74743,1.17355l-1.59271 0.522335c-0.764982,0.219592 -1.40675,0.296695 -1.9888,0.892731l-0.214301 -0.109985z"/>
   <path id="_236042912" class="fil3" d="M25.862 24.9961c0.126237,0.093733 0.951693,0.166301 1.12895,0.110741 0.219214,-0.0687879 0.611154,-0.262301 0.826967,-0.350743 -0.459216,-0.0464886 -1.66754,0.0816384 -1.95592,0.240002z"/>
  </g>
  <path class="fil6" style="mask:url(#id2)" d="M12.5561 9.28788l3.84268 4.40167c0,0 -2.74887,5.21125 -3.5868,6.43318 -0.83755,1.22155 -5.15683,3.91335 -7.28094,5.63683 -2.12411,1.72348 -4.07701,3.24059 -4.07701,3.24059 0,0 0.122836,-4.77396 0.70073,-6.73328 0.577894,-1.95932 4.04072,-9.71422 4.04072,-9.71422"/>
  <path class="fil6" style="mask:url(#id4)" d="M8.68051 16.7007c0,0 -1.98389,4.2743 -2.48922,5.94865 -0.505327,1.67472 -0.465264,5.18744 -0.465264,5.18744 0,0 5.62852,-7.00579 6.43092,-8.6053 0.802022,-1.59913 1.4865,-2.42572 1.4865,-2.42572l-1.38143 -2.53722"/>
  <path class="fil6" style="mask:url(#id6)" d="M12.5701 19.5739c0,0 -2.46654,2.13658 -2.68424,3.8714 -0.21808,1.73519 0.490209,3.19259 0.490209,3.19259 0,0 0.598304,-3.92961 1.66187,-5.71242"/>
  <g id="_256548560">
   <path id="_256548368" class="fil7" d="M13.4624 8.49493l3.84268 4.40167 0.542744 0.622115 -0.382113 0.727943c-0.00755911,0.0147403 -2.79423,5.29629 -3.65786,6.55602 -0.64895,0.946401 -2.6438,2.36033 -4.6001,3.74743 -1.08889,0.771786 -2.1672,1.53601 -2.91668,2.14414 -2.39133,1.94005 -4.08117,3.24135 -4.08646,3.24551l-2.02622 1.62105 0.0718116 -2.59353c0.000377956,-0.0136064 0.126993,-4.93383 0.747974,-7.04018 0.608131,-2.06213 4.08306,-9.83857 4.0925,-9.86049l2.20953 0.972102c-0.00944889,0.0219214 -3.44166,7.71256 -3.98894,9.56795 -0.261923,0.887818 -0.424066,2.44689 -0.521201,3.80715 0.629296,-0.500035 1.32662,-1.05828 1.98087,-1.58893 0.824321,-0.668604 1.92606,-1.44984 3.03914,-2.23863 1.7832,-1.26426 3.60116,-2.55309 4.00595,-3.14346 0.622493,-0.90785 2.35466,-4.12841 3.13099,-5.58505l-3.29729 -3.77691 1.81268 -1.5859z"/>
   <path id="_262507592" class="fil8" d="M9.78036 17.1962c-0.00529138,0.0117166 -1.95517,4.2161 -2.43252,5.79784 -0.094111,0.311436 -0.166678,0.704887 -0.222994,1.13236 1.61123,-2.06515 3.53653,-4.59783 3.95568,-5.43311 0.432759,-0.862873 0.842463,-1.52732 1.14369,-1.97595l-1.01972 -1.87277 2.11504 -1.15201 1.38143 2.53722 0.391184 0.717738 -0.523469 0.627784c-0.00113387,0.00151182 -0.595658,0.719628 -1.33532,2.19441 -0.85796,1.71025 -6.5564,8.80712 -6.57265,8.82716l-2.14339 -0.760069c0,-0.0105828 -0.0442208,-3.66995 0.517421,-5.53214 0.532918,-1.76619 2.54062,-6.08736 2.54591,-6.09945l2.1997 0.991z"/>
   <path id="_263282480" class="fil9" d="M13.3441 20.4946c-0.00264569,0.00188978 -0.352255,0.303876 -0.776321,0.747974l0.503815 0.301231c-0.933929,1.56587 -1.50426,5.28231 -1.50578,5.29251l-2.28966 0.297073c-0.00188978,-0.00453547 -0.851156,-1.7522 -0.589611,-3.83436 0.27364,-2.18232 3.1015,-4.63903 3.10944,-4.64583l1.54811 1.8414z"/>
  </g>
 </g>
</svg>
